<mxfile host="drawio-plugin" modified="2022-12-01T14:14:25.186Z" agent="5.0 (Macintosh; Intel Mac OS X 10_15_7) AppleWebKit/537.36 (KHTML, like Gecko) Chrome/98.0.4758.102 Safari/537.36" etag="nwGaQK-DF8BHFAaAh88T" version="20.5.3" type="embed"><diagram id="23iRSUPoRavnBvh4doch" name="Page-1"><mxGraphModel dx="1334" dy="1063" grid="1" gridSize="10" guides="1" tooltips="1" connect="1" arrows="1" fold="1" page="1" pageScale="1" pageWidth="827" pageHeight="1169" math="0" shadow="0"><root><mxCell id="0"/><mxCell id="1" parent="0"/><mxCell id="174" value="" style="rounded=0;whiteSpace=wrap;html=1;fillColor=none;" parent="1" vertex="1"><mxGeometry x="150" y="1050" width="1530" height="1160" as="geometry"/></mxCell><mxCell id="156" style="edgeStyle=orthogonalEdgeStyle;rounded=0;orthogonalLoop=1;jettySize=auto;html=1;entryX=0;entryY=0.5;entryDx=0;entryDy=0;entryPerimeter=0;" parent="1" source="32" target="28" edge="1"><mxGeometry relative="1" as="geometry"/></mxCell><mxCell id="118" value="API Gateway Operator" style="rounded=0;whiteSpace=wrap;html=1;fillColor=none;labelPosition=center;verticalLabelPosition=top;align=center;verticalAlign=bottom;dashed=1;fontSize=22;" parent="1" vertex="1"><mxGeometry x="1550" y="345" width="271" height="290" as="geometry"/></mxCell><mxCell id="38" value="Istio Operator" style="rounded=0;whiteSpace=wrap;html=1;fillColor=none;labelPosition=center;verticalLabelPosition=top;align=center;verticalAlign=bottom;fontSize=22;dashed=1;" parent="1" vertex="1"><mxGeometry x="390" y="345" width="1079" height="530" as="geometry"/></mxCell><mxCell id="33" style="edgeStyle=orthogonalEdgeStyle;rounded=0;orthogonalLoop=1;jettySize=auto;html=1;entryX=1;entryY=0.5;entryDx=0;entryDy=0;startArrow=classic;startFill=1;endArrow=none;endFill=0;" parent="1" source="26" target="32" edge="1"><mxGeometry relative="1" as="geometry"/></mxCell><mxCell id="37" value="uses" style="edgeLabel;html=1;align=center;verticalAlign=middle;resizable=0;points=[];" parent="33" vertex="1" connectable="0"><mxGeometry x="0.2189" y="1" relative="1" as="geometry"><mxPoint x="-26" y="33" as="offset"/></mxGeometry></mxCell><mxCell id="27" value="Global mTLS&amp;nbsp;" style="shape=note;whiteSpace=wrap;html=1;backgroundOutline=1;darkOpacity=0.05;fillColor=#e1d5e7;strokeColor=#9673a6;" parent="1" vertex="1"><mxGeometry x="422.04999999999995" y="635" width="70" height="90" as="geometry"/></mxCell><mxCell id="28" value="Istio service monitor" style="shape=note;whiteSpace=wrap;html=1;backgroundOutline=1;darkOpacity=0.05;fillColor=#e1d5e7;strokeColor=#9673a6;" parent="1" vertex="1"><mxGeometry x="422.04999999999995" y="529" width="79" height="90" as="geometry"/></mxCell><mxCell id="43" style="edgeStyle=orthogonalEdgeStyle;rounded=0;orthogonalLoop=1;jettySize=auto;html=1;entryX=1;entryY=0.5;entryDx=0;entryDy=0;fontSize=22;startArrow=classic;startFill=1;endArrow=none;endFill=0;" parent="1" source="29" target="42" edge="1"><mxGeometry relative="1" as="geometry"/></mxCell><mxCell id="44" value="uses" style="edgeLabel;html=1;align=center;verticalAlign=middle;resizable=0;points=[];fontSize=11;" parent="43" vertex="1" connectable="0"><mxGeometry x="0.1115" y="-1" relative="1" as="geometry"><mxPoint as="offset"/></mxGeometry></mxCell><mxCell id="29" value="Istio ingress gateway health virtual service" style="shape=note;whiteSpace=wrap;html=1;backgroundOutline=1;darkOpacity=0.05;fillColor=#e1d5e7;strokeColor=#9673a6;" parent="1" vertex="1"><mxGeometry x="422.04999999999995" y="748" width="78.95" height="115" as="geometry"/></mxCell><mxCell id="32" value="Monitoring" style="whiteSpace=wrap;html=1;" parent="1" vertex="1"><mxGeometry x="40" y="545" width="120" height="60" as="geometry"/></mxCell><mxCell id="61" style="edgeStyle=orthogonalEdgeStyle;rounded=0;orthogonalLoop=1;jettySize=auto;html=1;entryX=0;entryY=0;entryDx=70;entryDy=60;entryPerimeter=0;" parent="1" target="27" edge="1"><mxGeometry relative="1" as="geometry"><mxPoint x="691" y="565.0000000000005" as="sourcePoint"/><mxPoint x="550" y="855" as="targetPoint"/><Array as="points"><mxPoint x="570" y="565"/><mxPoint x="570" y="695"/></Array></mxGeometry></mxCell><mxCell id="62" style="edgeStyle=orthogonalEdgeStyle;rounded=0;orthogonalLoop=1;jettySize=auto;html=1;entryX=0;entryY=0;entryDx=78.95;entryDy=72.5;entryPerimeter=0;" parent="1" target="29" edge="1"><mxGeometry relative="1" as="geometry"><mxPoint x="697" y="565" as="sourcePoint"/><mxPoint x="540" y="815" as="targetPoint"/><Array as="points"><mxPoint x="570" y="565"/><mxPoint x="570" y="820"/><mxPoint x="510" y="820"/></Array></mxGeometry></mxCell><mxCell id="2" value="IstioController" style="rounded=1;whiteSpace=wrap;html=1;" parent="1" vertex="1"><mxGeometry x="694" y="535" width="150" height="60" as="geometry"/></mxCell><mxCell id="4" style="edgeStyle=orthogonalEdgeStyle;rounded=0;orthogonalLoop=1;jettySize=auto;html=1;entryX=0.5;entryY=0;entryDx=0;entryDy=0;" parent="1" source="3" target="2" edge="1"><mxGeometry relative="1" as="geometry"/></mxCell><mxCell id="5" value="configured by" style="edgeLabel;html=1;align=center;verticalAlign=middle;resizable=0;points=[];" parent="4" vertex="1" connectable="0"><mxGeometry x="-0.2429" y="1" relative="1" as="geometry"><mxPoint as="offset"/></mxGeometry></mxCell><mxCell id="3" value="IstioCR" style="shape=note;whiteSpace=wrap;html=1;backgroundOutline=1;darkOpacity=0.05;" parent="1" vertex="1"><mxGeometry x="736.5" y="355" width="65" height="80" as="geometry"/></mxCell><mxCell id="6" value="Istio Installation" style="rounded=1;whiteSpace=wrap;html=1;" parent="1" vertex="1"><mxGeometry x="1074" y="535" width="150" height="60" as="geometry"/></mxCell><mxCell id="7" style="edgeStyle=orthogonalEdgeStyle;rounded=0;orthogonalLoop=1;jettySize=auto;html=1;entryX=0;entryY=0.5;entryDx=0;entryDy=0;" parent="1" source="2" target="6" edge="1"><mxGeometry relative="1" as="geometry"/></mxCell><mxCell id="9" value="reconciles" style="edgeLabel;html=1;align=center;verticalAlign=middle;resizable=0;points=[];" parent="7" vertex="1" connectable="0"><mxGeometry x="-0.061" y="3" relative="1" as="geometry"><mxPoint x="48" y="3" as="offset"/></mxGeometry></mxCell><mxCell id="10" value="Istio proxy sidecars pods" style="rounded=1;whiteSpace=wrap;html=1;" parent="1" vertex="1"><mxGeometry x="1074" y="635" width="150" height="60" as="geometry"/></mxCell><mxCell id="11" style="edgeStyle=orthogonalEdgeStyle;rounded=0;orthogonalLoop=1;jettySize=auto;html=1;entryX=0;entryY=0.5;entryDx=0;entryDy=0;" parent="1" source="2" target="10" edge="1"><mxGeometry relative="1" as="geometry"><Array as="points"><mxPoint x="914" y="565"/><mxPoint x="914" y="665"/></Array></mxGeometry></mxCell><mxCell id="16" value="restarts" style="edgeLabel;html=1;align=center;verticalAlign=middle;resizable=0;points=[];" parent="11" vertex="1" connectable="0"><mxGeometry x="0.5214" relative="1" as="geometry"><mxPoint as="offset"/></mxGeometry></mxCell><mxCell id="12" value="Istio ingress gateway" style="rounded=1;whiteSpace=wrap;html=1;" parent="1" vertex="1"><mxGeometry x="1074" y="745" width="150" height="60" as="geometry"/></mxCell><mxCell id="13" value="restarts" style="edgeStyle=orthogonalEdgeStyle;rounded=0;orthogonalLoop=1;jettySize=auto;html=1;entryX=0;entryY=0.5;entryDx=0;entryDy=0;" parent="1" source="2" target="12" edge="1"><mxGeometry x="0.6636" relative="1" as="geometry"><Array as="points"><mxPoint x="914" y="565"/><mxPoint x="914" y="775"/></Array><mxPoint as="offset"/></mxGeometry></mxCell><mxCell id="20" style="edgeStyle=orthogonalEdgeStyle;rounded=0;orthogonalLoop=1;jettySize=auto;html=1;entryX=1;entryY=0.5;entryDx=0;entryDy=0;" parent="1" source="18" target="10" edge="1"><mxGeometry relative="1" as="geometry"><Array as="points"><mxPoint x="1379" y="665"/></Array></mxGeometry></mxCell><mxCell id="21" style="edgeStyle=orthogonalEdgeStyle;rounded=0;orthogonalLoop=1;jettySize=auto;html=1;entryX=1;entryY=0.5;entryDx=0;entryDy=0;" parent="1" source="18" target="12" edge="1"><mxGeometry relative="1" as="geometry"><Array as="points"><mxPoint x="1379" y="775"/></Array></mxGeometry></mxCell><mxCell id="22" value="manages" style="edgeLabel;html=1;align=center;verticalAlign=middle;resizable=0;points=[];" parent="21" vertex="1" connectable="0"><mxGeometry x="-0.8016" relative="1" as="geometry"><mxPoint as="offset"/></mxGeometry></mxCell><mxCell id="18" value="istiod" style="rounded=1;whiteSpace=wrap;html=1;" parent="1" vertex="1"><mxGeometry x="1304" y="535" width="150" height="60" as="geometry"/></mxCell><mxCell id="19" value="" style="edgeStyle=orthogonalEdgeStyle;rounded=0;orthogonalLoop=1;jettySize=auto;html=1;" parent="1" source="6" target="18" edge="1"><mxGeometry relative="1" as="geometry"/></mxCell><mxCell id="26" value="Istio Grafana dashboards" style="shape=note;whiteSpace=wrap;html=1;backgroundOutline=1;darkOpacity=0.05;fillColor=#e1d5e7;strokeColor=#9673a6;" parent="1" vertex="1"><mxGeometry x="250" y="415" width="80" height="100" as="geometry"/></mxCell><mxCell id="42" value="customer/external monitoring" style="whiteSpace=wrap;html=1;" parent="1" vertex="1"><mxGeometry x="180" y="776.5" width="120" height="60" as="geometry"/></mxCell><mxCell id="146" style="edgeStyle=orthogonalEdgeStyle;rounded=0;orthogonalLoop=1;jettySize=auto;html=1;entryX=0;entryY=0;entryDx=70;entryDy=60;entryPerimeter=0;fontSize=22;startArrow=classic;startFill=1;endArrow=none;endFill=0;" parent="1" source="46" target="145" edge="1"><mxGeometry relative="1" as="geometry"/></mxCell><mxCell id="147" value="uses" style="edgeLabel;html=1;align=center;verticalAlign=middle;resizable=0;points=[];fontSize=11;" parent="146" vertex="1" connectable="0"><mxGeometry x="0.1651" relative="1" as="geometry"><mxPoint as="offset"/></mxGeometry></mxCell><mxCell id="46" value="kyma-gateway-certs" style="shape=note;whiteSpace=wrap;html=1;backgroundOutline=1;darkOpacity=0.05;fillColor=#fff2cc;strokeColor=#d6b656;" parent="1" vertex="1"><mxGeometry x="1740" y="380" width="70" height="90" as="geometry"/></mxCell><mxCell id="47" value="kyma-tls-cert" style="shape=note;whiteSpace=wrap;html=1;backgroundOutline=1;darkOpacity=0.05;fillColor=#fff2cc;strokeColor=#d6b656;" parent="1" vertex="1"><mxGeometry x="1740" y="495" width="70" height="90" as="geometry"/></mxCell><mxCell id="58" style="edgeStyle=orthogonalEdgeStyle;rounded=0;orthogonalLoop=1;jettySize=auto;html=1;entryX=1;entryY=0.556;entryDx=0;entryDy=0;entryPerimeter=0;" parent="1" source="2" target="28" edge="1"><mxGeometry relative="1" as="geometry"><Array as="points"><mxPoint x="570" y="565"/><mxPoint x="570" y="579"/></Array></mxGeometry></mxCell><mxCell id="60" value="applies/verifies" style="edgeLabel;html=1;align=center;verticalAlign=middle;resizable=0;points=[];" parent="58" vertex="1" connectable="0"><mxGeometry x="-0.6264" y="-2" relative="1" as="geometry"><mxPoint x="-28" y="2" as="offset"/></mxGeometry></mxCell><mxCell id="65" style="edgeStyle=orthogonalEdgeStyle;rounded=0;orthogonalLoop=1;jettySize=auto;html=1;entryX=0.5;entryY=1;entryDx=0;entryDy=0;" parent="1" source="63" target="2" edge="1"><mxGeometry relative="1" as="geometry"/></mxCell><mxCell id="66" value="configured by" style="edgeLabel;html=1;align=center;verticalAlign=middle;resizable=0;points=[];" parent="65" vertex="1" connectable="0"><mxGeometry x="0.1194" y="-1" relative="1" as="geometry"><mxPoint as="offset"/></mxGeometry></mxCell><mxCell id="63" value="Kyma Istio-operator defaults" style="shape=note;whiteSpace=wrap;html=1;backgroundOutline=1;darkOpacity=0.05;fillColor=#ffe6cc;strokeColor=#d79b00;" parent="1" vertex="1"><mxGeometry x="718.25" y="685" width="101.5" height="110" as="geometry"/></mxCell><mxCell id="93" value="IstioController" style="rounded=1;whiteSpace=wrap;html=1;" parent="1" vertex="1"><mxGeometry x="769" y="1210" width="240" height="110" as="geometry"/></mxCell><mxCell id="166" style="edgeStyle=orthogonalEdgeStyle;rounded=0;orthogonalLoop=1;jettySize=auto;html=1;" parent="1" source="94" target="148" edge="1"><mxGeometry relative="1" as="geometry"/></mxCell><mxCell id="167" value="invokes actions" style="edgeLabel;html=1;align=center;verticalAlign=middle;resizable=0;points=[];" parent="166" vertex="1" connectable="0"><mxGeometry x="-0.0679" relative="1" as="geometry"><mxPoint as="offset"/></mxGeometry></mxCell><mxCell id="94" value="IstioInstallationReconciler" style="rounded=1;whiteSpace=wrap;html=1;" parent="1" vertex="1"><mxGeometry x="769" y="1650" width="240" height="110" as="geometry"/></mxCell><mxCell id="98" style="edgeStyle=orthogonalEdgeStyle;rounded=0;orthogonalLoop=1;jettySize=auto;html=1;entryX=0.5;entryY=1;entryDx=0;entryDy=0;startArrow=classic;startFill=1;endArrow=none;endFill=0;" parent="1" source="95" target="93" edge="1"><mxGeometry relative="1" as="geometry"/></mxCell><mxCell id="99" value="provides configuration" style="edgeLabel;html=1;align=center;verticalAlign=middle;resizable=0;points=[];" parent="98" vertex="1" connectable="0"><mxGeometry x="0.1028" relative="1" as="geometry"><mxPoint as="offset"/></mxGeometry></mxCell><mxCell id="169" style="edgeStyle=orthogonalEdgeStyle;rounded=0;orthogonalLoop=1;jettySize=auto;html=1;entryX=0.5;entryY=0;entryDx=0;entryDy=0;" parent="1" source="95" target="160" edge="1"><mxGeometry relative="1" as="geometry"><Array as="points"><mxPoint x="889" y="1610"/><mxPoint x="600" y="1610"/></Array></mxGeometry></mxCell><mxCell id="170" style="edgeStyle=orthogonalEdgeStyle;rounded=0;orthogonalLoop=1;jettySize=auto;html=1;entryX=0.5;entryY=0;entryDx=0;entryDy=0;" parent="1" source="95" target="94" edge="1"><mxGeometry relative="1" as="geometry"/></mxCell><mxCell id="172" style="edgeStyle=orthogonalEdgeStyle;rounded=0;orthogonalLoop=1;jettySize=auto;html=1;" parent="1" source="95" target="171" edge="1"><mxGeometry relative="1" as="geometry"><Array as="points"><mxPoint x="889" y="1610"/><mxPoint x="320" y="1610"/></Array></mxGeometry></mxCell><mxCell id="95" value="IstioReconciler" style="rounded=1;whiteSpace=wrap;html=1;" parent="1" vertex="1"><mxGeometry x="769" y="1385" width="240" height="110" as="geometry"/></mxCell><mxCell id="105" style="edgeStyle=orthogonalEdgeStyle;rounded=0;orthogonalLoop=1;jettySize=auto;html=1;entryX=0.5;entryY=1;entryDx=0;entryDy=0;startArrow=classic;startFill=1;endArrow=none;endFill=0;" parent="1" source="102" target="103" edge="1"><mxGeometry relative="1" as="geometry"/></mxCell><mxCell id="106" value="uses" style="edgeLabel;html=1;align=center;verticalAlign=middle;resizable=0;points=[];" parent="105" vertex="1" connectable="0"><mxGeometry x="0.117" relative="1" as="geometry"><mxPoint as="offset"/></mxGeometry></mxCell><mxCell id="102" value="SidecarProxy Lib" style="rounded=1;whiteSpace=wrap;html=1;" parent="1" vertex="1"><mxGeometry x="1359" y="1845" width="240" height="110" as="geometry"/></mxCell><mxCell id="110" style="edgeStyle=orthogonalEdgeStyle;rounded=0;orthogonalLoop=1;jettySize=auto;html=1;entryX=0.5;entryY=1;entryDx=0;entryDy=0;startArrow=classic;startFill=1;endArrow=none;endFill=0;" parent="1" source="103" target="95" edge="1"><mxGeometry relative="1" as="geometry"><Array as="points"><mxPoint x="1480" y="1610"/><mxPoint x="889" y="1610"/></Array></mxGeometry></mxCell><mxCell id="103" value="ProxySidecarReconciler" style="rounded=1;whiteSpace=wrap;html=1;" parent="1" vertex="1"><mxGeometry x="1360" y="1650" width="240" height="110" as="geometry"/></mxCell><mxCell id="111" style="edgeStyle=orthogonalEdgeStyle;rounded=0;orthogonalLoop=1;jettySize=auto;html=1;entryX=0.5;entryY=1;entryDx=0;entryDy=0;startArrow=classic;startFill=1;endArrow=none;endFill=0;" parent="1" source="107" target="95" edge="1"><mxGeometry relative="1" as="geometry"><Array as="points"><mxPoint x="1186" y="1610"/><mxPoint x="889" y="1610"/></Array></mxGeometry></mxCell><mxCell id="115" value="triggers reconcilers and passing configurationi" style="edgeLabel;html=1;align=center;verticalAlign=middle;resizable=0;points=[];" parent="111" vertex="1" connectable="0"><mxGeometry x="0.6095" y="-1" relative="1" as="geometry"><mxPoint x="-1" y="-30" as="offset"/></mxGeometry></mxCell><mxCell id="107" value="IstioIngressGatewayReconciler" style="rounded=1;whiteSpace=wrap;html=1;" parent="1" vertex="1"><mxGeometry x="1066" y="1650" width="240" height="110" as="geometry"/></mxCell><mxCell id="119" value="kyma resources&amp;nbsp; istio-resources" style="shape=note;whiteSpace=wrap;html=1;backgroundOutline=1;darkOpacity=0.05;dashed=1;dashPattern=1 1;fillColor=#e1d5e7;strokeColor=#9673a6;" parent="1" vertex="1"><mxGeometry x="70" y="115" width="80" height="100" as="geometry"/></mxCell><mxCell id="120" value="Legend" style="text;html=1;strokeColor=none;fillColor=none;align=center;verticalAlign=middle;whiteSpace=wrap;rounded=0;dashed=1;dashPattern=1 1;fontSize=26;fontStyle=1" parent="1" vertex="1"><mxGeometry x="80" y="65" width="60" height="30" as="geometry"/></mxCell><mxCell id="140" value="&lt;span style=&quot;background-color: rgb(255, 255, 255); font-size: 10px;&quot;&gt;It's still open who will have the ownership of the dashboards. For simplicity we don't consider it part of the operator right now.&lt;/span&gt;" style="shape=note2;boundedLbl=1;whiteSpace=wrap;html=1;size=25;verticalAlign=top;align=center;dashed=1;dashPattern=1 1;fontSize=10;fillColor=none;" parent="1" vertex="1"><mxGeometry x="160" y="280" width="170" height="90" as="geometry"/></mxCell><mxCell id="141" value="" style="endArrow=none;dashed=1;html=1;dashPattern=1 3;strokeWidth=2;rounded=0;fontSize=10;entryX=0.5;entryY=1;entryDx=0;entryDy=0;entryPerimeter=0;exitX=0;exitY=0;exitDx=25;exitDy=0;exitPerimeter=0;" parent="1" source="26" target="140" edge="1"><mxGeometry width="50" height="50" relative="1" as="geometry"><mxPoint x="20" y="470" as="sourcePoint"/><mxPoint x="70" y="420" as="targetPoint"/></mxGeometry></mxCell><mxCell id="142" value="kyma resources certificates" style="shape=note;whiteSpace=wrap;html=1;backgroundOutline=1;darkOpacity=0.05;dashed=1;dashPattern=1 1;fillColor=#fff2cc;strokeColor=#d6b656;" parent="1" vertex="1"><mxGeometry x="170" y="115" width="80" height="100" as="geometry"/></mxCell><mxCell id="145" value="Kyma Gateway" style="shape=note;whiteSpace=wrap;html=1;backgroundOutline=1;darkOpacity=0.05;fillColor=#e1d5e7;strokeColor=#9673a6;" parent="1" vertex="1"><mxGeometry x="1580" y="365" width="70" height="90" as="geometry"/></mxCell><mxCell id="163" style="edgeStyle=orthogonalEdgeStyle;rounded=0;orthogonalLoop=1;jettySize=auto;html=1;" parent="1" source="148" target="150" edge="1"><mxGeometry relative="1" as="geometry"><Array as="points"><mxPoint x="889" y="1965"/><mxPoint x="1156" y="1965"/></Array></mxGeometry></mxCell><mxCell id="164" style="edgeStyle=orthogonalEdgeStyle;rounded=0;orthogonalLoop=1;jettySize=auto;html=1;entryX=0.5;entryY=0;entryDx=0;entryDy=0;" parent="1" source="148" target="153" edge="1"><mxGeometry relative="1" as="geometry"/></mxCell><mxCell id="165" style="edgeStyle=orthogonalEdgeStyle;rounded=0;orthogonalLoop=1;jettySize=auto;html=1;" parent="1" source="148" target="152" edge="1"><mxGeometry relative="1" as="geometry"><Array as="points"><mxPoint x="889" y="1965"/><mxPoint x="629" y="1965"/></Array></mxGeometry></mxCell><mxCell id="168" value="routes actions to correct &lt;br&gt;client version implementations" style="edgeLabel;html=1;align=center;verticalAlign=middle;resizable=0;points=[];" parent="165" vertex="1" connectable="0"><mxGeometry x="-0.8792" relative="1" as="geometry"><mxPoint as="offset"/></mxGeometry></mxCell><mxCell id="148" value="IstioManager" style="rounded=1;whiteSpace=wrap;html=1;" parent="1" vertex="1"><mxGeometry x="769" y="1805" width="240" height="110" as="geometry"/></mxCell><mxCell id="150" value="IstioClient latest&lt;br&gt;(default)" style="rounded=1;whiteSpace=wrap;html=1;" parent="1" vertex="1"><mxGeometry x="1036.05" y="2025" width="240" height="110" as="geometry"/></mxCell><mxCell id="152" value="IstioClient 1.13.0" style="rounded=1;whiteSpace=wrap;html=1;" parent="1" vertex="1"><mxGeometry x="509" y="2025" width="240" height="110" as="geometry"/></mxCell><mxCell id="153" value="IstioClient 1.15.0" style="rounded=1;whiteSpace=wrap;html=1;" parent="1" vertex="1"><mxGeometry x="769" y="2025" width="240" height="110" as="geometry"/></mxCell><mxCell id="159" value="" style="rounded=0;whiteSpace=wrap;html=1;fillColor=none;" parent="1" vertex="1"><mxGeometry x="60" y="100" width="310" height="130" as="geometry"/></mxCell><mxCell id="157" value="kyma resources&lt;br&gt;istio" style="shape=note;whiteSpace=wrap;html=1;backgroundOutline=1;darkOpacity=0.05;dashed=1;dashPattern=1 1;fillColor=#ffe6cc;strokeColor=#d79b00;" parent="1" vertex="1"><mxGeometry x="270" y="115" width="80" height="100" as="geometry"/></mxCell><mxCell id="160" value="MonitoringReconciler" style="rounded=1;whiteSpace=wrap;html=1;" parent="1" vertex="1"><mxGeometry x="480" y="1650" width="240" height="110" as="geometry"/></mxCell><mxCell id="171" value="PeerAuthenticationReconciler" style="rounded=1;whiteSpace=wrap;html=1;" parent="1" vertex="1"><mxGeometry x="200" y="1650" width="240" height="110" as="geometry"/></mxCell><mxCell id="173" value="&lt;h1&gt;Istio Controller component diagram&lt;/h1&gt;&lt;div&gt;This is a zoomed in view of the IstioController to better understand the relations between single components. A detailed explanation of components and its responsibility can be found in the technical-design.md.&lt;/div&gt;" style="text;html=1;strokeColor=none;fillColor=none;spacing=5;spacingTop=-20;whiteSpace=wrap;overflow=hidden;rounded=0;" parent="1" vertex="1"><mxGeometry x="680" y="1060" width="490" height="120" as="geometry"/></mxCell></root></mxGraphModel></diagram></mxfile>